<svg width="48" height="48" viewBox="0 0 48 48" fill="none" xmlns="http://www.w3.org/2000/svg">
<circle cx="24" cy="24" r="24" transform="matrix(-1 0 0 1 48 0)" fill="#FFDE40"/>
<path d="M35.25 22.5C36.0784 22.5 36.75 23.1716 36.75 24C36.75 24.8284 36.0784 25.5 35.25 25.5L35.25 22.5ZM11.6893 25.0607C11.1036 24.4749 11.1036 23.5251 11.6893 22.9393L21.2353 13.3934C21.8211 12.8076 22.7708 12.8076 23.3566 13.3934C23.9424 13.9792 23.9424 14.9289 23.3566 15.5147L14.8713 24L23.3566 32.4853C23.9424 33.0711 23.9424 34.0208 23.3566 34.6066C22.7708 35.1924 21.8211 35.1924 21.2353 34.6066L11.6893 25.0607ZM35.25 25.5L12.75 25.5L12.75 22.5L35.25 22.5L35.25 25.5Z" fill="#21201F"/>
</svg>
